<mxfile host="app.diagrams.net" agent="Mozilla/5.0 (Windows NT 10.0; Win64; x64) AppleWebKit/537.36 (KHTML, like Gecko) Chrome/136.0.0.0 Safari/537.36" version="28.1.1">
  <diagram name="Página-1" id="gbBm3O7HYZ3LbT1UAqhM">
    <mxGraphModel dx="1303" dy="734" grid="0" gridSize="10" guides="1" tooltips="1" connect="1" arrows="1" fold="1" page="0" pageScale="1" pageWidth="827" pageHeight="1169" math="0" shadow="0">
      <root>
        <mxCell id="0" />
        <mxCell id="1" parent="0" />
        <mxCell id="u2rl3dbb-hcfmXuqSU7z-1" value="Administrador" style="shape=umlActor;verticalLabelPosition=bottom;verticalAlign=top;html=1;outlineConnect=0;" vertex="1" parent="1">
          <mxGeometry x="203" y="434.5" width="63" height="91" as="geometry" />
        </mxCell>
        <mxCell id="u2rl3dbb-hcfmXuqSU7z-2" value="" style="whiteSpace=wrap;html=1;aspect=fixed;fillColor=#f5f5f5;fontColor=#333333;strokeColor=#666666;" vertex="1" parent="1">
          <mxGeometry x="337" y="128" width="636.5" height="636.5" as="geometry" />
        </mxCell>
        <mxCell id="u2rl3dbb-hcfmXuqSU7z-55" style="edgeStyle=none;curved=1;rounded=0;orthogonalLoop=1;jettySize=auto;html=1;exitX=0;exitY=0.5;exitDx=0;exitDy=0;fontSize=12;endArrow=none;endFill=0;" edge="1" parent="1" source="u2rl3dbb-hcfmXuqSU7z-3" target="u2rl3dbb-hcfmXuqSU7z-1">
          <mxGeometry relative="1" as="geometry" />
        </mxCell>
        <mxCell id="u2rl3dbb-hcfmXuqSU7z-3" value="Gestionar porcinos" style="ellipse;whiteSpace=wrap;html=1;fillColor=#1ba1e2;strokeColor=#006EAF;fontColor=#ffffff;fontStyle=1" vertex="1" parent="1">
          <mxGeometry x="377" y="263" width="99" height="59" as="geometry" />
        </mxCell>
        <mxCell id="u2rl3dbb-hcfmXuqSU7z-4" value="Registrar porcino" style="ellipse;whiteSpace=wrap;html=1;fillColor=#dae8fc;strokeColor=#6c8ebf;" vertex="1" parent="1">
          <mxGeometry x="389" y="156" width="87" height="52" as="geometry" />
        </mxCell>
        <mxCell id="u2rl3dbb-hcfmXuqSU7z-45" style="edgeStyle=none;curved=1;rounded=0;orthogonalLoop=1;jettySize=auto;html=1;exitX=0;exitY=1;exitDx=0;exitDy=0;entryX=1;entryY=0;entryDx=0;entryDy=0;fontSize=12;startSize=8;endSize=8;" edge="1" parent="1" source="u2rl3dbb-hcfmXuqSU7z-5" target="u2rl3dbb-hcfmXuqSU7z-3">
          <mxGeometry relative="1" as="geometry" />
        </mxCell>
        <mxCell id="u2rl3dbb-hcfmXuqSU7z-48" value="&amp;lt;&amp;lt;extend&amp;gt;&amp;gt;" style="edgeLabel;html=1;align=center;verticalAlign=middle;resizable=0;points=[];fontSize=12;" vertex="1" connectable="0" parent="u2rl3dbb-hcfmXuqSU7z-45">
          <mxGeometry x="-0.2773" y="-3" relative="1" as="geometry">
            <mxPoint as="offset" />
          </mxGeometry>
        </mxCell>
        <mxCell id="u2rl3dbb-hcfmXuqSU7z-5" value="Consultar porcino" style="ellipse;whiteSpace=wrap;html=1;fillColor=#dae8fc;strokeColor=#6c8ebf;" vertex="1" parent="1">
          <mxGeometry x="516" y="189" width="87" height="52" as="geometry" />
        </mxCell>
        <mxCell id="u2rl3dbb-hcfmXuqSU7z-44" style="edgeStyle=none;curved=1;rounded=0;orthogonalLoop=1;jettySize=auto;html=1;exitX=0;exitY=0.5;exitDx=0;exitDy=0;entryX=1;entryY=0.5;entryDx=0;entryDy=0;fontSize=12;startSize=8;endSize=8;" edge="1" parent="1" source="u2rl3dbb-hcfmXuqSU7z-6" target="u2rl3dbb-hcfmXuqSU7z-3">
          <mxGeometry relative="1" as="geometry" />
        </mxCell>
        <mxCell id="u2rl3dbb-hcfmXuqSU7z-49" value="&amp;lt;&amp;lt;extend&amp;gt;&amp;gt;" style="edgeLabel;html=1;align=center;verticalAlign=middle;resizable=0;points=[];fontSize=12;" vertex="1" connectable="0" parent="u2rl3dbb-hcfmXuqSU7z-44">
          <mxGeometry x="-0.2815" y="2" relative="1" as="geometry">
            <mxPoint as="offset" />
          </mxGeometry>
        </mxCell>
        <mxCell id="u2rl3dbb-hcfmXuqSU7z-6" value="Actualizar porcino" style="ellipse;whiteSpace=wrap;html=1;fillColor=#dae8fc;strokeColor=#6c8ebf;" vertex="1" parent="1">
          <mxGeometry x="598" y="237" width="87" height="52" as="geometry" />
        </mxCell>
        <mxCell id="u2rl3dbb-hcfmXuqSU7z-7" value="Eliminar porcino" style="ellipse;whiteSpace=wrap;html=1;fillColor=#dae8fc;strokeColor=#6c8ebf;" vertex="1" parent="1">
          <mxGeometry x="546" y="315" width="87" height="52" as="geometry" />
        </mxCell>
        <mxCell id="u2rl3dbb-hcfmXuqSU7z-58" style="edgeStyle=none;curved=1;rounded=0;orthogonalLoop=1;jettySize=auto;html=1;exitX=0;exitY=0.5;exitDx=0;exitDy=0;fontSize=12;endArrow=none;endFill=0;" edge="1" parent="1" source="u2rl3dbb-hcfmXuqSU7z-8" target="u2rl3dbb-hcfmXuqSU7z-1">
          <mxGeometry relative="1" as="geometry" />
        </mxCell>
        <mxCell id="u2rl3dbb-hcfmXuqSU7z-8" value="Gestionar clientes" style="ellipse;whiteSpace=wrap;html=1;fillColor=#6a00ff;fontColor=#ffffff;strokeColor=#3700CC;fontStyle=1" vertex="1" parent="1">
          <mxGeometry x="385" y="574" width="99" height="59" as="geometry" />
        </mxCell>
        <mxCell id="u2rl3dbb-hcfmXuqSU7z-26" style="edgeStyle=none;curved=1;rounded=0;orthogonalLoop=1;jettySize=auto;html=1;exitX=0;exitY=1;exitDx=0;exitDy=0;entryX=1;entryY=0;entryDx=0;entryDy=0;fontSize=12;startSize=8;endSize=8;" edge="1" parent="1" source="u2rl3dbb-hcfmXuqSU7z-9" target="u2rl3dbb-hcfmXuqSU7z-8">
          <mxGeometry relative="1" as="geometry" />
        </mxCell>
        <mxCell id="u2rl3dbb-hcfmXuqSU7z-31" value="&amp;lt;&amp;lt;extend&amp;gt;&amp;gt;" style="edgeLabel;html=1;align=center;verticalAlign=middle;resizable=0;points=[];fontSize=12;" vertex="1" connectable="0" parent="u2rl3dbb-hcfmXuqSU7z-26">
          <mxGeometry x="-0.2598" relative="1" as="geometry">
            <mxPoint as="offset" />
          </mxGeometry>
        </mxCell>
        <mxCell id="u2rl3dbb-hcfmXuqSU7z-9" value="Registrar cliente" style="ellipse;whiteSpace=wrap;html=1;fillColor=#e1d5e7;strokeColor=#9673a6;" vertex="1" parent="1">
          <mxGeometry x="541" y="533" width="87" height="52" as="geometry" />
        </mxCell>
        <mxCell id="u2rl3dbb-hcfmXuqSU7z-27" style="edgeStyle=none;curved=1;rounded=0;orthogonalLoop=1;jettySize=auto;html=1;exitX=0;exitY=0.5;exitDx=0;exitDy=0;entryX=1;entryY=0.5;entryDx=0;entryDy=0;fontSize=12;startSize=8;endSize=8;" edge="1" parent="1" source="u2rl3dbb-hcfmXuqSU7z-10" target="u2rl3dbb-hcfmXuqSU7z-8">
          <mxGeometry relative="1" as="geometry" />
        </mxCell>
        <mxCell id="u2rl3dbb-hcfmXuqSU7z-30" value="&amp;lt;&amp;lt;extend&amp;gt;&amp;gt;" style="edgeLabel;html=1;align=center;verticalAlign=middle;resizable=0;points=[];fontSize=12;" vertex="1" connectable="0" parent="u2rl3dbb-hcfmXuqSU7z-27">
          <mxGeometry x="-0.2213" y="1" relative="1" as="geometry">
            <mxPoint as="offset" />
          </mxGeometry>
        </mxCell>
        <mxCell id="u2rl3dbb-hcfmXuqSU7z-10" value="Consultar cliente" style="ellipse;whiteSpace=wrap;html=1;fillColor=#e1d5e7;strokeColor=#9673a6;" vertex="1" parent="1">
          <mxGeometry x="581" y="623" width="87" height="52" as="geometry" />
        </mxCell>
        <mxCell id="u2rl3dbb-hcfmXuqSU7z-28" style="edgeStyle=none;curved=1;rounded=0;orthogonalLoop=1;jettySize=auto;html=1;exitX=0;exitY=0.5;exitDx=0;exitDy=0;entryX=1;entryY=1;entryDx=0;entryDy=0;fontSize=12;startSize=8;endSize=8;" edge="1" parent="1" source="u2rl3dbb-hcfmXuqSU7z-11" target="u2rl3dbb-hcfmXuqSU7z-8">
          <mxGeometry relative="1" as="geometry" />
        </mxCell>
        <mxCell id="u2rl3dbb-hcfmXuqSU7z-32" value="&amp;lt;&amp;lt;extend&amp;gt;&amp;gt;" style="edgeLabel;html=1;align=center;verticalAlign=middle;resizable=0;points=[];fontSize=12;" vertex="1" connectable="0" parent="u2rl3dbb-hcfmXuqSU7z-28">
          <mxGeometry x="0.0517" y="2" relative="1" as="geometry">
            <mxPoint as="offset" />
          </mxGeometry>
        </mxCell>
        <mxCell id="u2rl3dbb-hcfmXuqSU7z-11" value="Actualizar cliente" style="ellipse;whiteSpace=wrap;html=1;fillColor=#e1d5e7;strokeColor=#9673a6;" vertex="1" parent="1">
          <mxGeometry x="511" y="688" width="87" height="52" as="geometry" />
        </mxCell>
        <mxCell id="u2rl3dbb-hcfmXuqSU7z-29" style="edgeStyle=none;curved=1;rounded=0;orthogonalLoop=1;jettySize=auto;html=1;exitX=0;exitY=0;exitDx=0;exitDy=0;entryX=0.5;entryY=1;entryDx=0;entryDy=0;fontSize=12;startSize=8;endSize=8;" edge="1" parent="1" source="u2rl3dbb-hcfmXuqSU7z-12" target="u2rl3dbb-hcfmXuqSU7z-8">
          <mxGeometry relative="1" as="geometry" />
        </mxCell>
        <mxCell id="u2rl3dbb-hcfmXuqSU7z-33" value="&amp;lt;&amp;lt;extend&amp;gt;&amp;gt;" style="edgeLabel;html=1;align=center;verticalAlign=middle;resizable=0;points=[];fontSize=12;" vertex="1" connectable="0" parent="u2rl3dbb-hcfmXuqSU7z-29">
          <mxGeometry x="-0.1816" y="2" relative="1" as="geometry">
            <mxPoint as="offset" />
          </mxGeometry>
        </mxCell>
        <mxCell id="u2rl3dbb-hcfmXuqSU7z-12" value="Eliminar cliente" style="ellipse;whiteSpace=wrap;html=1;fillColor=#e1d5e7;strokeColor=#9673a6;" vertex="1" parent="1">
          <mxGeometry x="400" y="705" width="87" height="52" as="geometry" />
        </mxCell>
        <mxCell id="u2rl3dbb-hcfmXuqSU7z-57" style="edgeStyle=none;curved=1;rounded=0;orthogonalLoop=1;jettySize=auto;html=1;exitX=0;exitY=0.5;exitDx=0;exitDy=0;fontSize=12;endArrow=none;endFill=0;" edge="1" parent="1" source="u2rl3dbb-hcfmXuqSU7z-13" target="u2rl3dbb-hcfmXuqSU7z-1">
          <mxGeometry relative="1" as="geometry" />
        </mxCell>
        <mxCell id="u2rl3dbb-hcfmXuqSU7z-13" value="Gestionar Alimentación" style="ellipse;whiteSpace=wrap;html=1;fillColor=#008a00;fontColor=#ffffff;strokeColor=#005700;fontStyle=1" vertex="1" parent="1">
          <mxGeometry x="642" y="419" width="99" height="59" as="geometry" />
        </mxCell>
        <mxCell id="u2rl3dbb-hcfmXuqSU7z-36" style="edgeStyle=none;curved=1;rounded=0;orthogonalLoop=1;jettySize=auto;html=1;exitX=0;exitY=0.5;exitDx=0;exitDy=0;entryX=1;entryY=0;entryDx=0;entryDy=0;fontSize=12;startSize=8;endSize=8;" edge="1" parent="1" source="u2rl3dbb-hcfmXuqSU7z-14" target="u2rl3dbb-hcfmXuqSU7z-13">
          <mxGeometry relative="1" as="geometry" />
        </mxCell>
        <mxCell id="u2rl3dbb-hcfmXuqSU7z-42" value="&amp;lt;&amp;lt;extend&amp;gt;&amp;gt;" style="edgeLabel;html=1;align=center;verticalAlign=middle;resizable=0;points=[];fontSize=12;" vertex="1" connectable="0" parent="u2rl3dbb-hcfmXuqSU7z-36">
          <mxGeometry x="-0.2754" y="1" relative="1" as="geometry">
            <mxPoint as="offset" />
          </mxGeometry>
        </mxCell>
        <mxCell id="u2rl3dbb-hcfmXuqSU7z-14" value="Registrar alimentación" style="ellipse;whiteSpace=wrap;html=1;fillColor=#d5e8d4;strokeColor=#82b366;" vertex="1" parent="1">
          <mxGeometry x="800" y="367" width="87" height="52" as="geometry" />
        </mxCell>
        <mxCell id="u2rl3dbb-hcfmXuqSU7z-38" style="edgeStyle=none;curved=1;rounded=0;orthogonalLoop=1;jettySize=auto;html=1;exitX=0;exitY=0.5;exitDx=0;exitDy=0;entryX=1;entryY=0.5;entryDx=0;entryDy=0;fontSize=12;startSize=8;endSize=8;" edge="1" parent="1" source="u2rl3dbb-hcfmXuqSU7z-15" target="u2rl3dbb-hcfmXuqSU7z-13">
          <mxGeometry relative="1" as="geometry" />
        </mxCell>
        <mxCell id="u2rl3dbb-hcfmXuqSU7z-41" value="&amp;lt;&amp;lt;extend&amp;gt;&amp;gt;" style="edgeLabel;html=1;align=center;verticalAlign=middle;resizable=0;points=[];fontSize=12;" vertex="1" connectable="0" parent="u2rl3dbb-hcfmXuqSU7z-38">
          <mxGeometry x="-0.0659" y="1" relative="1" as="geometry">
            <mxPoint as="offset" />
          </mxGeometry>
        </mxCell>
        <mxCell id="u2rl3dbb-hcfmXuqSU7z-15" value="Consultar alimentación" style="ellipse;whiteSpace=wrap;html=1;fillColor=#d5e8d4;strokeColor=#82b366;" vertex="1" parent="1">
          <mxGeometry x="800" y="453" width="87" height="52" as="geometry" />
        </mxCell>
        <mxCell id="u2rl3dbb-hcfmXuqSU7z-16" value="Actualizar alimentación" style="ellipse;whiteSpace=wrap;html=1;fillColor=#d5e8d4;strokeColor=#82b366;" vertex="1" parent="1">
          <mxGeometry x="773" y="530" width="87" height="52" as="geometry" />
        </mxCell>
        <mxCell id="u2rl3dbb-hcfmXuqSU7z-34" style="edgeStyle=none;curved=1;rounded=0;orthogonalLoop=1;jettySize=auto;html=1;exitX=0.5;exitY=0;exitDx=0;exitDy=0;fontSize=12;startSize=8;endSize=8;" edge="1" parent="1" source="u2rl3dbb-hcfmXuqSU7z-17" target="u2rl3dbb-hcfmXuqSU7z-13">
          <mxGeometry relative="1" as="geometry" />
        </mxCell>
        <mxCell id="u2rl3dbb-hcfmXuqSU7z-40" value="&amp;lt;&amp;lt;extend&amp;gt;&amp;gt;" style="edgeLabel;html=1;align=center;verticalAlign=middle;resizable=0;points=[];fontSize=12;" vertex="1" connectable="0" parent="u2rl3dbb-hcfmXuqSU7z-34">
          <mxGeometry x="0.0734" relative="1" as="geometry">
            <mxPoint as="offset" />
          </mxGeometry>
        </mxCell>
        <mxCell id="u2rl3dbb-hcfmXuqSU7z-17" value="Eliminar alimentación" style="ellipse;whiteSpace=wrap;html=1;fillColor=#d5e8d4;strokeColor=#82b366;" vertex="1" parent="1">
          <mxGeometry x="650" y="525.5" width="87" height="52" as="geometry" />
        </mxCell>
        <mxCell id="u2rl3dbb-hcfmXuqSU7z-56" style="edgeStyle=none;curved=1;rounded=0;orthogonalLoop=1;jettySize=auto;html=1;exitX=0;exitY=1;exitDx=0;exitDy=0;fontSize=12;endArrow=none;endFill=0;" edge="1" parent="1" source="u2rl3dbb-hcfmXuqSU7z-18" target="u2rl3dbb-hcfmXuqSU7z-1">
          <mxGeometry relative="1" as="geometry" />
        </mxCell>
        <mxCell id="u2rl3dbb-hcfmXuqSU7z-18" value="Generar informe" style="ellipse;whiteSpace=wrap;html=1;fillColor=#d80073;fontColor=#ffffff;strokeColor=#A50040;fontStyle=1" vertex="1" parent="1">
          <mxGeometry x="761" y="289" width="99" height="59" as="geometry" />
        </mxCell>
        <mxCell id="u2rl3dbb-hcfmXuqSU7z-37" style="edgeStyle=none;curved=1;rounded=0;orthogonalLoop=1;jettySize=auto;html=1;exitX=0;exitY=0;exitDx=0;exitDy=0;entryX=0.776;entryY=0.905;entryDx=0;entryDy=0;entryPerimeter=0;fontSize=12;startSize=8;endSize=8;" edge="1" parent="1" source="u2rl3dbb-hcfmXuqSU7z-16" target="u2rl3dbb-hcfmXuqSU7z-13">
          <mxGeometry relative="1" as="geometry" />
        </mxCell>
        <mxCell id="u2rl3dbb-hcfmXuqSU7z-39" value="&amp;lt;&amp;lt;extend&amp;gt;&amp;gt;" style="edgeLabel;html=1;align=center;verticalAlign=middle;resizable=0;points=[];fontSize=12;" vertex="1" connectable="0" parent="u2rl3dbb-hcfmXuqSU7z-37">
          <mxGeometry x="-0.4205" y="-3" relative="1" as="geometry">
            <mxPoint as="offset" />
          </mxGeometry>
        </mxCell>
        <mxCell id="u2rl3dbb-hcfmXuqSU7z-46" style="edgeStyle=none;curved=1;rounded=0;orthogonalLoop=1;jettySize=auto;html=1;exitX=0.5;exitY=1;exitDx=0;exitDy=0;entryX=0.442;entryY=0.027;entryDx=0;entryDy=0;entryPerimeter=0;fontSize=12;startSize=8;endSize=8;" edge="1" parent="1" source="u2rl3dbb-hcfmXuqSU7z-4" target="u2rl3dbb-hcfmXuqSU7z-3">
          <mxGeometry relative="1" as="geometry" />
        </mxCell>
        <mxCell id="u2rl3dbb-hcfmXuqSU7z-47" value="&amp;lt;&amp;lt;extend&amp;gt;&amp;gt;" style="edgeLabel;html=1;align=center;verticalAlign=middle;resizable=0;points=[];fontSize=12;" vertex="1" connectable="0" parent="u2rl3dbb-hcfmXuqSU7z-46">
          <mxGeometry x="-0.3912" y="-1" relative="1" as="geometry">
            <mxPoint as="offset" />
          </mxGeometry>
        </mxCell>
        <mxCell id="u2rl3dbb-hcfmXuqSU7z-51" style="edgeStyle=none;curved=1;rounded=0;orthogonalLoop=1;jettySize=auto;html=1;exitX=0.5;exitY=0;exitDx=0;exitDy=0;entryX=0.693;entryY=0.949;entryDx=0;entryDy=0;entryPerimeter=0;fontSize=12;startSize=8;endSize=8;" edge="1" parent="1" source="u2rl3dbb-hcfmXuqSU7z-7" target="u2rl3dbb-hcfmXuqSU7z-3">
          <mxGeometry relative="1" as="geometry" />
        </mxCell>
        <mxCell id="u2rl3dbb-hcfmXuqSU7z-52" value="&amp;lt;&amp;lt;extend&amp;gt;&amp;gt;" style="edgeLabel;html=1;align=center;verticalAlign=middle;resizable=0;points=[];fontSize=12;" vertex="1" connectable="0" parent="u2rl3dbb-hcfmXuqSU7z-51">
          <mxGeometry x="-0.2902" y="-4" relative="1" as="geometry">
            <mxPoint as="offset" />
          </mxGeometry>
        </mxCell>
        <mxCell id="u2rl3dbb-hcfmXuqSU7z-53" value="Granja S.A." style="text;html=1;align=center;verticalAlign=middle;whiteSpace=wrap;rounded=0;fontStyle=1;fontSize=18;" vertex="1" parent="1">
          <mxGeometry x="609" y="145" width="111" height="30" as="geometry" />
        </mxCell>
      </root>
    </mxGraphModel>
  </diagram>
</mxfile>
